<?xml version="1.0" encoding="UTF-8"?>
<svg xmlns="http://www.w3.org/2000/svg" xmlns:xlink="http://www.w3.org/1999/xlink" width="3840" height="2160" viewBox="0 0 3840 2160">
<defs>
<g>
<g id="glyph-0-0">
<path d="M 0.300781 -0.332031 C 0.371094 -0.332031 0.464844 -0.292969 0.578125 -0.222656 C 0.691406 -0.148438 0.789062 -0.113281 0.871094 -0.113281 C 1.046875 -0.113281 1.179688 -0.171875 1.265625 -0.292969 C 1.351562 -0.414062 1.394531 -0.542969 1.394531 -0.683594 C 1.394531 -0.820312 1.359375 -0.9375 1.289062 -1.039062 C 1.171875 -1.214844 0.972656 -1.300781 0.691406 -1.300781 C 0.675781 -1.300781 0.660156 -1.300781 0.644531 -1.300781 C 0.628906 -1.300781 0.613281 -1.296875 0.59375 -1.296875 L 0.589844 -1.34375 C 0.792969 -1.417969 0.949219 -1.503906 1.066406 -1.597656 C 1.183594 -1.691406 1.242188 -1.816406 1.242188 -1.972656 C 1.242188 -2.109375 1.195312 -2.214844 1.105469 -2.289062 C 1.011719 -2.359375 0.90625 -2.398438 0.789062 -2.398438 C 0.652344 -2.398438 0.527344 -2.34375 0.421875 -2.242188 C 0.363281 -2.1875 0.300781 -2.101562 0.234375 -1.984375 L 0.175781 -1.996094 C 0.226562 -2.191406 0.320312 -2.34375 0.457031 -2.460938 C 0.59375 -2.574219 0.753906 -2.632812 0.9375 -2.632812 C 1.128906 -2.632812 1.28125 -2.578125 1.386719 -2.472656 C 1.492188 -2.367188 1.542969 -2.242188 1.542969 -2.105469 C 1.542969 -1.980469 1.5 -1.867188 1.414062 -1.765625 C 1.363281 -1.707031 1.285156 -1.644531 1.183594 -1.570312 C 1.304688 -1.519531 1.402344 -1.457031 1.476562 -1.386719 C 1.613281 -1.253906 1.683594 -1.085938 1.683594 -0.882812 C 1.683594 -0.640625 1.589844 -0.429688 1.398438 -0.246094 C 1.210938 -0.0625 0.941406 0.0273438 0.589844 0.0273438 C 0.433594 0.0273438 0.324219 0.00390625 0.261719 -0.0390625 C 0.199219 -0.0859375 0.167969 -0.136719 0.167969 -0.191406 C 0.167969 -0.222656 0.179688 -0.253906 0.199219 -0.285156 C 0.222656 -0.316406 0.253906 -0.332031 0.300781 -0.332031 Z "/>
</g>
<g id="glyph-0-1">
<path d="M 0.632812 0.046875 C 0.574219 0.046875 0.523438 0.0234375 0.480469 -0.0195312 C 0.4375 -0.0625 0.417969 -0.113281 0.417969 -0.171875 C 0.417969 -0.230469 0.4375 -0.28125 0.480469 -0.324219 C 0.523438 -0.363281 0.574219 -0.386719 0.632812 -0.386719 C 0.691406 -0.386719 0.746094 -0.363281 0.785156 -0.324219 C 0.828125 -0.28125 0.847656 -0.230469 0.847656 -0.171875 C 0.847656 -0.113281 0.828125 -0.0585938 0.789062 -0.0195312 C 0.746094 0.0234375 0.695312 0.046875 0.632812 0.046875 Z "/>
</g>
<g id="glyph-0-2">
<path d="M 1.132812 -2.21875 L 0.203125 -0.898438 L 1.132812 -0.898438 Z M 1.257812 -2.609375 L 1.441406 -2.609375 L 1.441406 -0.898438 L 1.835938 -0.898438 L 1.835938 -0.648438 L 1.441406 -0.648438 L 1.441406 0 L 1.136719 0 L 1.136719 -0.648438 L 0.0429688 -0.648438 L 0.0429688 -0.898438 Z "/>
</g>
<g id="glyph-0-3">
<path d="M 0.738281 -1.578125 C 0.738281 -1.515625 0.714844 -1.464844 0.671875 -1.421875 C 0.628906 -1.382812 0.578125 -1.363281 0.523438 -1.363281 C 0.460938 -1.363281 0.410156 -1.386719 0.371094 -1.429688 C 0.332031 -1.472656 0.3125 -1.519531 0.3125 -1.578125 C 0.3125 -1.636719 0.332031 -1.683594 0.375 -1.726562 C 0.414062 -1.765625 0.464844 -1.789062 0.523438 -1.789062 C 0.578125 -1.789062 0.628906 -1.765625 0.671875 -1.726562 C 0.714844 -1.6875 0.738281 -1.636719 0.738281 -1.578125 Z M 0.515625 0.03125 C 0.464844 0.03125 0.417969 0.0117188 0.375 -0.03125 C 0.332031 -0.0742188 0.3125 -0.121094 0.3125 -0.183594 C 0.3125 -0.238281 0.332031 -0.289062 0.375 -0.332031 C 0.414062 -0.375 0.464844 -0.394531 0.523438 -0.394531 C 0.582031 -0.394531 0.636719 -0.375 0.679688 -0.332031 C 0.722656 -0.292969 0.746094 -0.242188 0.746094 -0.183594 C 0.746094 -0.128906 0.726562 -0.078125 0.683594 -0.0351562 C 0.640625 0.0117188 0.585938 0.03125 0.515625 0.03125 Z "/>
</g>
<g id="glyph-0-4">
<path d="M 1.152344 -2.609375 C 1.15625 -2.601562 1.160156 -2.597656 1.160156 -2.59375 C 1.160156 -2.589844 1.160156 -2.585938 1.160156 -2.574219 L 1.160156 -0.285156 C 1.160156 -0.1875 1.1875 -0.128906 1.238281 -0.101562 C 1.289062 -0.0742188 1.386719 -0.0585938 1.527344 -0.0546875 L 1.527344 0 L 0.457031 0 L 0.457031 -0.0585938 C 0.609375 -0.0664062 0.710938 -0.0859375 0.757812 -0.121094 C 0.804688 -0.15625 0.828125 -0.226562 0.828125 -0.34375 L 0.828125 -2.101562 C 0.828125 -2.160156 0.820312 -2.207031 0.804688 -2.238281 C 0.789062 -2.269531 0.757812 -2.285156 0.707031 -2.285156 C 0.671875 -2.285156 0.632812 -2.277344 0.578125 -2.257812 C 0.527344 -2.242188 0.476562 -2.222656 0.429688 -2.203125 L 0.429688 -2.253906 L 1.128906 -2.609375 Z "/>
</g>
</g>
</defs>
<g fill="rgb(29.019608%, 48.627451%, 34.901961%)" fill-opacity="1">
<use xlink:href="#glyph-0-0" x="30" y="22.916992"/>
<use xlink:href="#glyph-0-1" x="32" y="22.916992"/>
<use xlink:href="#glyph-0-2" x="33" y="22.916992"/>
<use xlink:href="#glyph-0-3" x="35" y="22.916992"/>
<use xlink:href="#glyph-0-4" x="36" y="22.916992"/>
</g>
</svg>
