<?xml version="1.0" encoding="UTF-8"?>
<svg xmlns="http://www.w3.org/2000/svg" xmlns:xlink="http://www.w3.org/1999/xlink" width="1920pt" height="1080pt" viewBox="0 0 1920 1080" version="1.1">
<defs>
<g>
<symbol overflow="visible" id="glyph0-0">
<path style="stroke:none;" d="M 0.484375 0 L 0.484375 -2.917969 L 3.402344 -2.917969 L 3.402344 0 Z M 0.730469 -0.242188 L 3.160156 -0.242188 L 3.160156 -2.675781 L 0.730469 -2.675781 Z "/>
</symbol>
<symbol overflow="visible" id="glyph0-1">
<path style="stroke:none;" d="M 2.308594 0 L 1.886719 0 L 0.636719 -2.4375 L 0.636719 0 L 0.285156 0 L 0.285156 -2.828125 L 0.820312 -2.828125 L 1.957031 -0.589844 L 1.957031 -2.828125 L 2.308594 -2.828125 Z "/>
</symbol>
<symbol overflow="visible" id="glyph0-2">
<path style="stroke:none;" d="M 2.285156 -2.503906 C 2.394531 -2.375 2.476562 -2.222656 2.535156 -2.039062 C 2.59375 -1.855469 2.625 -1.644531 2.625 -1.414062 C 2.625 -1.179688 2.59375 -0.972656 2.539062 -0.792969 C 2.476562 -0.605469 2.394531 -0.453125 2.285156 -0.328125 C 2.167969 -0.195312 2.03125 -0.0976562 1.882812 -0.0351562 C 1.726562 0.0273438 1.558594 0.0585938 1.375 0.0585938 C 1.183594 0.0585938 1.011719 0.0273438 0.859375 -0.0390625 C 0.703125 -0.101562 0.570312 -0.199219 0.464844 -0.328125 C 0.351562 -0.453125 0.269531 -0.605469 0.210938 -0.789062 C 0.152344 -0.972656 0.121094 -1.179688 0.125 -1.414062 C 0.121094 -1.648438 0.152344 -1.859375 0.210938 -2.039062 C 0.269531 -2.21875 0.351562 -2.371094 0.464844 -2.503906 C 0.570312 -2.625 0.703125 -2.722656 0.859375 -2.789062 C 1.011719 -2.851562 1.183594 -2.882812 1.375 -2.886719 C 1.566406 -2.882812 1.738281 -2.847656 1.894531 -2.785156 C 2.046875 -2.714844 2.179688 -2.621094 2.285156 -2.503906 Z M 2.234375 -1.414062 C 2.230469 -1.597656 2.210938 -1.765625 2.171875 -1.910156 C 2.128906 -2.054688 2.074219 -2.171875 2.003906 -2.269531 C 1.925781 -2.363281 1.832031 -2.4375 1.730469 -2.488281 C 1.621094 -2.535156 1.503906 -2.558594 1.375 -2.5625 C 1.238281 -2.558594 1.121094 -2.535156 1.019531 -2.488281 C 0.917969 -2.4375 0.828125 -2.363281 0.75 -2.269531 C 0.671875 -2.167969 0.613281 -2.046875 0.574219 -1.90625 C 0.535156 -1.757812 0.515625 -1.59375 0.515625 -1.414062 C 0.515625 -1.039062 0.59375 -0.753906 0.75 -0.558594 C 0.90625 -0.359375 1.113281 -0.261719 1.375 -0.265625 C 1.636719 -0.261719 1.84375 -0.359375 2 -0.558594 C 2.152344 -0.753906 2.230469 -1.039062 2.234375 -1.414062 Z "/>
</symbol>
<symbol overflow="visible" id="glyph0-3">
<path style="stroke:none;" d="M 0.949219 0 L 0.949219 -2.492188 L 0 -2.492188 L 0 -2.828125 L 2.273438 -2.828125 L 2.273438 -2.492188 L 1.324219 -2.492188 L 1.324219 0 Z "/>
</symbol>
<symbol overflow="visible" id="glyph0-4">
<path style="stroke:none;" d=""/>
</symbol>
<symbol overflow="visible" id="glyph0-5">
<path style="stroke:none;" d="M -0.0195312 0 L 0.933594 -2.828125 L 1.398438 -2.828125 L 2.351562 0 L 1.953125 0 L 1.699219 -0.789062 L 0.617188 -0.789062 L 0.359375 0 Z M 1.59375 -1.109375 L 1.15625 -2.445312 L 0.722656 -1.109375 Z "/>
</symbol>
<symbol overflow="visible" id="glyph0-6">
<path style="stroke:none;" d="M 2.070312 -1.976562 C 2.066406 -1.847656 2.046875 -1.730469 2.003906 -1.625 C 1.960938 -1.511719 1.898438 -1.421875 1.824219 -1.347656 C 1.722656 -1.25 1.609375 -1.175781 1.480469 -1.128906 C 1.347656 -1.078125 1.179688 -1.054688 0.980469 -1.054688 L 0.664062 -1.054688 L 0.664062 0 L 0.285156 0 L 0.285156 -2.828125 L 0.996094 -2.828125 C 1.160156 -2.824219 1.300781 -2.808594 1.421875 -2.785156 C 1.539062 -2.753906 1.644531 -2.710938 1.734375 -2.652344 C 1.839844 -2.578125 1.921875 -2.484375 1.980469 -2.375 C 2.039062 -2.261719 2.066406 -2.128906 2.070312 -1.976562 Z M 1.679688 -1.964844 C 1.675781 -2.058594 1.660156 -2.144531 1.628906 -2.21875 C 1.59375 -2.289062 1.542969 -2.347656 1.476562 -2.398438 C 1.414062 -2.433594 1.34375 -2.460938 1.269531 -2.480469 C 1.1875 -2.492188 1.089844 -2.5 0.972656 -2.503906 L 0.664062 -2.503906 L 0.664062 -1.375 L 0.917969 -1.375 C 1.070312 -1.371094 1.195312 -1.382812 1.289062 -1.410156 C 1.382812 -1.433594 1.457031 -1.476562 1.519531 -1.542969 C 1.574219 -1.597656 1.617188 -1.660156 1.640625 -1.730469 C 1.664062 -1.792969 1.675781 -1.871094 1.679688 -1.964844 Z "/>
</symbol>
<symbol overflow="visible" id="glyph0-7">
<path style="stroke:none;" d="M 1.925781 0 L 0.285156 0 L 0.285156 -2.828125 L 0.664062 -2.828125 L 0.664062 -0.335938 L 1.925781 -0.335938 Z "/>
</symbol>
<symbol overflow="visible" id="glyph0-8">
<path style="stroke:none;" d="M 0.285156 0 L 0.285156 -2.828125 L 2.054688 -2.828125 L 2.054688 -2.492188 L 0.664062 -2.492188 L 0.664062 -1.71875 L 1.960938 -1.71875 L 1.960938 -1.382812 L 0.664062 -1.382812 L 0.664062 -0.335938 L 2.054688 -0.335938 L 2.054688 0 Z "/>
</symbol>
</g>
</defs>
<g id="surface21">
<g style="fill:rgb(100%,100%,100%);fill-opacity:1;">
  <use xlink:href="#glyph0-1" x="30" y="23.890625"/>
  <use xlink:href="#glyph0-2" x="33" y="23.890625"/>
  <use xlink:href="#glyph0-3" x="36" y="23.890625"/>
  <use xlink:href="#glyph0-4" x="38" y="23.890625"/>
  <use xlink:href="#glyph0-5" x="39" y="23.890625"/>
  <use xlink:href="#glyph0-4" x="41" y="23.890625"/>
  <use xlink:href="#glyph0-6" x="42" y="23.890625"/>
  <use xlink:href="#glyph0-7" x="44" y="23.890625"/>
  <use xlink:href="#glyph0-5" x="46" y="23.890625"/>
  <use xlink:href="#glyph0-1" x="48" y="23.890625"/>
  <use xlink:href="#glyph0-8" x="51" y="23.890625"/>
  <use xlink:href="#glyph0-3" x="53" y="23.890625"/>
</g>
</g>
</svg>
